<?xml version="1.0" encoding="utf-8"?>
<!-- Generator: Adobe Illustrator 25.2.3, SVG Export Plug-In . SVG Version: 6.00 Build 0)  -->
<svg version="1.1" id="Layer_1" xmlns="http://www.w3.org/2000/svg" xmlns:xlink="http://www.w3.org/1999/xlink" x="0px" y="0px"
	 viewBox="0 0 300 300" style="enable-background:new 0 0 300 300;" xml:space="preserve">
<path d="M257.4,164.3c-5.5,1.7-11.3,1.9-16.9,0.7c-4.5-0.8-8.8-3.6-13-5.9c-5.6-3-11.1-6.2-16.4-9.8c-5.1-3.5-9.6-7.7-14.3-11.8
	c-0.7-0.8-1.1-1.7-1.1-2.7c-0.1-3.8-0.2-7.7,0-11.5c0.1-1,0.7-2,1.5-2.7c5.6-4.6,11.3-9.1,16.9-13.7c0.5-0.5,0.8-1.3,0.6-2
	c-2.3-7.2-4.7-14.3-7.5-21.5v2.7c0,5.8,0,11.6,0.1,17.4c0,2-0.8,2.5-2.7,2.6c-20.4,1.6-40.8-0.7-61.2,0.2c-1.5,0.3-3-0.7-3.3-2.3
	c0,0,0,0,0-0.1c-0.9-3.5-1.8-7.1-2.9-10.6c-1.3-4.3-1.6-4.4-6-4.5c-3.5,0-7,0-10.5,0c-3.4,0-2.9,3.1-3.8,5c-0.8,1.7,0.6,2.2,1.8,2.7
	c12,5.1,22.1,13.5,33.7,19.4c1.1,0.7,1.9,1.8,2.2,3.1c0.4,4.4,1,9,0.2,13.3c-0.4,2.6-2.8,5.3-5,6.9c-9.1,6.8-18.5,13.3-27.8,19.9
	c-1.5,1.1-2.9,2.2-4.4,3.3c-2.1,1.7-4.8,2.7-7.5,2.6c-0.6,0-1.1,0-1.7,0c-9.6,1.3-17.4-3.1-25-8c-4.5-2.8-9.5-5-13.8-8
	c-5-3.6-9.7-7.7-14.3-11.8c-0.7-0.8-1.1-1.9-1.1-3c-0.1-3.6,0-7.2-0.1-10.8c-0.1-1.4,0.7-2.8,1.9-3.5c5.2-3.9,10.2-8.1,15.3-12.1
	l-0.2-0.7c-1.2,0-2.4-0.1-3.7,0c-2.4,0.2-3.8-0.7-4.5-3.2c-2-6.5-4.2-12.9-6.3-19.3c-0.1-0.6-0.5-1.2-1-1.6v14.5
	c0,1.9-0.1,3.8,0,5.7s-0.7,2.5-2.6,2.5c-4.6-0.1-9.2-0.1-13.9,0c-2,0.1-2.7-0.7-2.6-2.6c0.3-9.7,0.6-19.4,0.6-29.2
	c0-14.6-0.4-29.2-0.5-43.7c0-2.6,0-5.3,0-7.9c-0.1-1.5,0.5-2.5,2.1-2.6c4.8-0.3,9.7-0.6,14.5-0.7c0.7,0,1.8,1.3,2.2,2.2
	C59,31.9,62.4,42,65.9,52.1c1.9,5.6,3.7,11.1,5.8,17.4c2.2-7,4.1-13.4,6-19.8c2.6-8.9,5.3-17.7,7.8-26.6c0.6-2.3,1.7-3.3,4.2-3.1
	c4.1,0.3,8.3,0.4,12.4,0.4c2.6,0,3,1,2.9,3.3c-0.3,11.6-0.4,23.3-0.6,34.9c-0.1,1,0.1,2.1,0.5,3c0.8-2.5,1.5-5.1,2.3-7.7
	c3.4-11,6.8-21.9,10.1-32.9c0.5-1.6,1.2-2.3,3-2.3c4.4,0.1,8.8,0.1,13.1,0c2.1-0.1,3,0.7,3.5,2.6c3.7,12.4,7.4,24.7,11.2,37.1
	c0.7,2.4,1.5,4.8,2.5,7.2c0-2.5,0.1-5,0-7.4c-0.2-11.5-0.5-22.9-0.7-34.4c-0.1-3.1,0-3.1,3.2-3.1c4.5,0,8.9,0.1,13.4,0
	c2.2-0.1,2.9,0.6,2.9,2.8c-0.3,13.1-0.5,26.3-0.7,39.4c-0.1,7.1,0,14.2,0.1,21.3c0,3.3,0.1,3.4,3.4,3.2c4.7-0.3,9.4-0.7,14.1-1
	c1.9-0.1,2.5-1,2.5-2.9c-0.2-17.6-0.3-35.2-0.4-52.8c0-2.6,0-5.3,0-7.9c0-1.4,0.5-2.3,1.9-2.4c4.9-0.3,9.9-0.7,14.8-0.7
	c0.7,0,1.8,1.4,2.1,2.4c4.4,12.8,8.8,25.6,13.1,38.4c1,2.8,1.9,5.6,3,9c0.5-1.6,0.9-2.7,1.2-3.8c4.2-14.1,8.4-28.2,12.5-42.4
	c0.7-2.3,1.7-3.5,4.3-3.3c4.2,0.3,8.4,0.4,12.7,0.4c2.2,0,2.7,0.9,2.6,2.9c-0.3,14.3-0.5,28.5-0.6,42.8c0,9,0.4,18,0.5,27
	c0,2.2,1.2,2.7,3.2,3.2c0.2-3.1,0.6-6.2,0.6-9.2c0.4-15.9,0.6-31.8,1-47.8c0.1-4.5,0.1-8.9,0.5-13.4c0.3-2,1-4,2.1-5.7
	c0.8-1,2-1.6,3.2-1.6c6.2-0.2,12.4-0.3,18.6-0.2c4.9,0.1,6.1,1.6,6.2,6.4c0.2,26.8-1.2,53.5-2.8,80.2c0,0.5,0,1,0,1.4
	c-1.1,4.9,0.3,8.4,5.4,10.2c0.9,0.5,1.6,1.5,1.7,2.5c0.3,4.5,1,9.2,0.3,13.5c-0.4,2.6-2.9,5.5-5.2,7.1c-3.4,2.2-3.9,5-3.9,8.5
	c0.2,16.3,0.6,32.7,0.3,49c-0.2,10.5-1.1,21-2.4,31.4c-2.2,17.7-12.5,29.7-28,37.7c-12.5,6.5-26,9.9-39.8,12
	c-15.2,2.3-30.6,3.4-45.9,3.5c-16.8,0.2-33.6,0.5-50.4,0.1c-19.9-0.4-39.8-1.8-59.3-6c-9.5-1.9-18.8-5-27.5-9.2
	c-11.2-5.6-18-14.8-22-26.5c-4.2-12.1-5.6-24.7-5.6-37.4c-0.1-15.5,0.3-31.1,0.2-46.6c-0.2-17.4-0.8-34.7-1.3-52
	C5.1,90.9,4.6,77.6,4,64.4c-0.3-7.9-1-15.7-1.4-23.6c-0.3-6-0.4-12.1-0.3-18.1c0.2-1.4,1-2.5,2.2-3.2c1.6-0.7,3.3-1,5.1-1
	c6.1-0.1,12.1,0,18.2,0c4.6,0,5,0.1,4.9,4.8c0,12.1,0.1,24.2-0.6,36.3c-0.7,14.9-0.4,29.8,1,44.6c0.5,6.7,0.2,13.5,0.3,20.3
	c0.1,4.8,0.1,9.6,0.2,14.3c0.3,8.3,0.5,16.6,1,24.8c0.3,5,1.1,10,1.6,15c0.5,4.3,0.7,8.6,0.6,12.9c-0.6,14.5,5.6,25.5,16.9,34
	c6.7,5.1,13.2,10.4,21,14.1c6.4,3.1,13.2,4.6,20.1,5.8c10.4,1.8,20.8,4.3,31.2,6.1c5,0.8,10,1.2,15,1.1c8.9,0.1,17.8-0.2,26.7-0.2
	c2,0,3.9,0.4,5.9,0.5c3,0.1,6,0.3,9,0.2c5.1-0.1,10.2-0.3,15.3-0.7c6-0.5,12-1.2,18.1-1.8c0.6-0.1,1.5-0.2,1.8-0.6
	c1.6-2.9,4.8-2.9,7.4-3.8c6.6-2.3,11.4-6.8,15.8-12l10.8-12.7c0.3-0.3,0.6-0.7,0.8-1.2c2.2-6.1,4.7-12.1,4.8-18.6
	c0.1-7.6-0.2-15.1-0.2-22.7c0-3.6,0.3-7.2,0.4-10.7C257.2,166.9,257.3,165.7,257.4,164.3z M88.2,129.7c5.6,3,11.1,5.9,16.6,8.7
	c0.5,0.2,1,0.3,1.6,0.1c5.3-2.1,10.8-3.9,13.7-9.7c-0.2-0.2-0.4-0.4-0.7-0.6c-5.3-3.1-10.7-6.2-16.1-9.2c-0.4-0.2-1.4,0.1-1.8,0.4
	C97,122.8,92.8,126.1,88.2,129.7z M261.4,128.9c0,0.1,0-0.1-0.1-0.2c-5.5-3.2-11.1-6.5-16.7-9.7c-0.4-0.2-1.2,0.1-1.7,0.4
	c-4.4,3.3-8.7,6.7-13.3,10.2c5.6,3,11.1,5.9,16.7,8.8c0.4,0.2,0.9,0.3,1.4,0.1C253,136.4,258.6,134.7,261.4,128.9L261.4,128.9z
	 M130.4,68.7c-1.2-4-2.2-7.4-3.3-10.9l-0.5,0.1l-3,10.7H130.4z M81.5,98.4c5.6-3.2,4.2-8.2,3.9-12.9C84.2,89.7,82.9,93.9,81.5,98.4z
	 M237.1,85.6c-0.6,1.9-1.2,3.8-1.8,5.7C237.7,91.7,237.8,91.3,237.1,85.6z"/>
</svg>
